<svg version="1.2" xmlns="http://www.w3.org/2000/svg" viewBox="0 0 24 24" width="24" height="24">
	<style>
		.s0 { fill: #000000 }
	</style>
	<g id="Layer">
		<path id="Layer" fill-rule="evenodd" class="s0" d="m23.9 1.8v20.4c0 1-0.8 1.7-1.7 1.7h-20.4c-1 0-1.8-0.7-1.8-1.7v-20.4c0-1 0.8-1.8 1.8-1.8h20.4c0.9 0 1.7 0.8 1.7 1.8zm-20.2 7.5v10.7h3.6v-10.7zm3.8-3.4c0-1-0.8-1.9-2-1.9-1.2 0-2 0.9-2 1.9 0 1 0.8 1.9 2 1.9 1.2 0 2-0.9 2-1.9zm12.8 8c0-3.4-1.8-4.9-4.1-4.9-2 0-2.8 1-3.3 1.8v-1.5h-3.6c0 1 0 10.7 0 10.7h3.6v-6c0-0.3 0-0.6 0.1-0.9 0.3-0.6 0.9-1.3 1.9-1.3 1.3 0 1.8 1 1.8 2.5v5.7h3.6z"/>
	</g>
</svg>