<svg version="1.2" xmlns="http://www.w3.org/2000/svg" viewBox="0 0 34 24" width="34" height="24">
	<style>
		.s0 { fill: #000000 }
	</style>
	<g id="Layer">
		<path id="Layer" fill-rule="evenodd" class="s0" d="m33.9 12c0 0 0 5.5-0.7 8.2-0.4 1.5-1.5 2.6-3 3-2.6 0.7-13.2 0.7-13.2 0.7 0 0-10.6 0-13.2-0.7-1.5-0.4-2.6-1.5-3-3-0.7-2.7-0.7-8.2-0.7-8.2 0 0 0-5.6 0.7-8.2 0.4-1.5 1.5-2.6 3-3 2.6-0.8 13.2-0.8 13.2-0.8 0 0 10.6 0 13.2 0.8 1.5 0.4 2.6 1.5 3 3 0.7 2.6 0.7 8.2 0.7 8.2zm-11.5 0l-8.8-5.1v10.2z"/>
	</g>
</svg>